# xmcd
#
# Track frame offsets:
#        150
#        20362
#        41302
#        65225
#        94965
#        119077
#        142565
#        170482
#        188882
#        219952
#        247335
#        281640
#        305350
#
# Disc length: 4567 seconds
#
# Revision: 37
# Processed by: cddbd v1.5.1PL2 Copyright (c) Steve Scherf et al.
# Submitted via: ExactAudioCopy v0.95b3
#
DISCID=be11d50d
DTITLE=Metallica - Reload
DYEAR=1997
DGENRE=Metal
TTITLE0=Fuel
TTITLE1=The Memory Remains
TTITLE2=Devil's Dance
TTITLE3=The Unforgiven II
TTITLE4=Better Than You
TTITLE5=Slither
TTITLE6=Carpe Diem Baby
TTITLE7=Bad Seed
TTITLE8=Where The Wild Things Are
TTITLE9=Prince Charming
TTITLE10=Low Man's Lyric
TTITLE11=Attitude
TTITLE12=Fixxxer
EXTD=eping Death Music (ASCAP) YEAR: 1997
EXTT0=
EXTT1=
EXTT2=
EXTT3=
EXTT4=
EXTT5=
EXTT6=
EXTT7=
EXTT8=
EXTT9=
EXTT10=
EXTT11=
EXTT12=
PLAYORDER=
